<svg width="32" height="32" viewBox="0 0 32 32" fill="none" xmlns="http://www.w3.org/2000/svg">
<path d="M18.9998 26.002C18.7892 27.6973 17.5263 29.0004 15.9999 29.0004C14.4735 29.0004 13.2107 27.6973 13 26.002H18.9998Z" fill="#EDB24E"/>
<path d="M15.9997 3C16.552 3 16.9997 3.44772 16.9997 4C16.9997 4.55228 16.552 5 15.9997 5C11.8674 5 9.1095 8.16363 9.00293 12.7247L8.99973 13V20C8.99973 20.1579 8.96233 20.3131 8.8913 20.4529L8.83178 20.5547L7.86773 22H24.1307L23.1677 20.5547C23.0801 20.4233 23.0251 20.2735 23.0067 20.1177L22.9997 20V13C22.9997 12.6906 22.9872 12.385 22.9624 12.0842C22.917 11.5337 23.3263 11.0507 23.8767 11.0053C24.4271 10.9598 24.9102 11.3692 24.9556 11.9196C24.9752 12.1568 24.9883 12.3961 24.9948 12.6371L24.9997 13V19.697L26.8318 22.4453C27.2537 23.0782 26.8417 23.9157 26.1116 23.9941L25.9997 24H5.99973C5.23907 24 4.77074 23.1926 5.11058 22.5417L5.16768 22.4453L6.99973 19.696V13C6.99973 7.35308 10.4762 3.14713 15.722 3.00378L15.9997 3Z" fill="#EDB24E"/>
<circle cx="23" cy="5" r="3" fill="#EDB24E"/>
</svg>
