<svg width="44" height="43" viewBox="0 0 44 43" fill="none" xmlns="http://www.w3.org/2000/svg">
<path d="M38.0001 18.85V40.35H6.05005V18.73" stroke="#EDB24E" stroke-width="5" stroke-linecap="round" stroke-linejoin="round"/>
<path d="M40.8 11.47L35.56 2.65002H8.32999L3.10001 11.47H3V14.58C3.04173 15.718 3.53212 16.7932 4.36404 17.5708C5.19597 18.3484 6.3018 18.7651 7.44 18.73H8.12C9.25819 18.7651 10.364 18.3484 11.196 17.5708C12.0279 16.7932 12.5183 15.718 12.56 14.58C12.5991 15.7171 13.0874 16.7923 13.9177 17.5701C14.748 18.348 15.8528 18.7651 16.99 18.73H17.68C19.77 18.73 21.52 16.36 21.98 14.53C22.44 16.36 24.19 18.73 26.29 18.73H27C28.1382 18.7651 29.244 18.3484 30.076 17.5708C30.9079 16.7932 31.3983 15.718 31.44 14.58C31.4792 15.7171 31.9674 16.7923 32.7977 17.5701C33.628 18.348 34.7328 18.7651 35.87 18.73H36.55C37.6882 18.7651 38.794 18.3484 39.6259 17.5708C40.4579 16.7932 40.9483 15.718 40.99 14.58V11.47H40.8Z" stroke="#EDB24E" stroke-width="5" stroke-linecap="round" stroke-linejoin="round"/>
<path d="M28.12 27.04H15.92V40.35H28.12V27.04Z" stroke="#EDB24E" stroke-width="5" stroke-linecap="round" stroke-linejoin="round"/>
</svg>
