<svg width="40" height="33" viewBox="0 0 40 33" fill="none" xmlns="http://www.w3.org/2000/svg">
<path d="M25.5 2.5H14.5C11.3174 2.5 8.26515 3.76433 6.01471 6.01477C3.76427 8.26521 2.5 11.3174 2.5 14.5V16.5V30.5L6.04001 28.5C8.6305 27.127 11.5288 26.4386 14.46 26.5H25.13C28.1544 26.5358 31.0852 25.4514 33.3579 23.4556C35.6306 21.4598 37.0847 18.6936 37.44 15.6899C37.6062 14.0221 37.4212 12.3379 36.8968 10.7458C36.3725 9.15384 35.5204 7.68941 34.3955 6.44678C33.2706 5.20414 31.8979 4.2109 30.3658 3.53113C28.8337 2.85136 27.1761 2.50012 25.5 2.5V2.5Z" stroke="#3A4651" stroke-width="5" stroke-linecap="round" stroke-linejoin="round"/>
<path d="M20 15.83C20.2761 15.83 20.5 15.6061 20.5 15.33C20.5 15.0538 20.2761 14.83 20 14.83C19.7239 14.83 19.5 15.0538 19.5 15.33C19.5 15.6061 19.7239 15.83 20 15.83Z" stroke="#3A4651" stroke-width="4" stroke-linecap="round" stroke-linejoin="round"/>
<path d="M27.5 16C27.7761 16 28 15.7761 28 15.5C28 15.2239 27.7761 15 27.5 15C27.2239 15 27 15.2239 27 15.5C27 15.7761 27.2239 16 27.5 16Z" stroke="#3A4651" stroke-width="4" stroke-linecap="round" stroke-linejoin="round"/>
<path d="M12.5 15.83C12.7761 15.83 13 15.6061 13 15.33C13 15.0538 12.7761 14.83 12.5 14.83C12.2239 14.83 12 15.0538 12 15.33C12 15.6061 12.2239 15.83 12.5 15.83Z" stroke="#3A4651" stroke-width="4" stroke-linecap="round" stroke-linejoin="round"/>
</svg>
