<svg width="32" height="32" viewBox="0 0 32 32" fill="none" xmlns="http://www.w3.org/2000/svg">
<path fill-rule="evenodd" clip-rule="evenodd" d="M10.35 23.999L5.6247 27.7789C4.96993 28.3027 4 27.8366 4 26.998V6.99805C4 5.34119 5.34315 3.99805 7 3.99805H25C26.6569 3.99805 28 5.34119 28 6.99805V20.998C28 22.6549 26.6569 23.998 25 23.998L10.35 23.999ZM6 24.919L9.37531 22.2172C9.55262 22.0753 9.77293 21.998 10 21.998H25C25.5523 21.998 26 21.5503 26 20.998V6.99805C26 6.44576 25.5523 5.99805 25 5.99805H7C6.44772 5.99805 6 6.44576 6 6.99805V24.919Z" fill="#EDB24E"/>
<path d="M11 17C10.4477 17 10 16.5523 10 16C10 15.4872 10.386 15.0645 10.8834 15.0067L11 15H15C15.5523 15 16 15.4477 16 16C16 16.5128 15.614 16.9355 15.1166 16.9933L15 17H11Z" fill="#EDB24E"/>
<path d="M11 13C10.4477 13 10 12.5523 10 12C10 11.4872 10.386 11.0645 10.8834 11.0067L11 11L21 11C21.5523 11 22 11.4477 22 12C22 12.5128 21.614 12.9355 21.1166 12.9933L21 13H11Z" fill="#EDB24E"/>
</svg>
