<svg width="46" height="48" viewBox="0 0 46 48" fill="none" xmlns="http://www.w3.org/2000/svg">
<path d="M39 45.38H6.78004C6.28561 45.383 5.80759 45.2027 5.43824 44.874C5.0689 44.5453 4.83442 44.0914 4.78004 43.6L3.20005 19.89C3.19173 19.6251 3.23775 19.3613 3.33531 19.1149C3.43287 18.8685 3.57988 18.6446 3.76729 18.4572C3.95469 18.2698 4.17852 18.1228 4.42494 18.0253C4.67136 17.9277 4.93516 17.8817 5.20005 17.89H40.91C41.4405 17.89 41.9492 18.1007 42.3243 18.4758C42.6993 18.8509 42.91 19.3596 42.91 19.89L41 43.62C40.9411 44.1078 40.7046 44.5568 40.3357 44.8815C39.9669 45.2061 39.4914 45.3835 39 45.38V45.38Z" stroke="#EDB24E" stroke-width="5" stroke-linecap="round" stroke-linejoin="round"/>
<path d="M13.05 24.38V13.38C13.05 10.7278 14.1036 8.18429 15.979 6.30893C17.8544 4.43357 20.3979 3.38 23.05 3.38C25.7022 3.38 28.2458 4.43357 30.1211 6.30893C31.9965 8.18429 33.05 10.7278 33.05 13.38V24.38" stroke="#EDB24E" stroke-width="5" stroke-linecap="round" stroke-linejoin="round"/>
</svg>
