<svg width="48" height="47" viewBox="0 0 48 47" fill="none" xmlns="http://www.w3.org/2000/svg">
<path d="M44.56 26V20.9199L39.81 19.77C39.4191 18.0059 38.7436 16.3171 37.81 14.77L40.3 10.7L36.7 7.11011L32.85 9.45996C31.2279 8.36025 29.4231 7.55789 27.52 7.09009L26.52 2.88989H21.44L20.44 6.88989C18.3605 7.27983 16.3749 8.06397 14.59 9.19995L11.21 7.12988L7.60999 10.72L9.60999 14.03C8.40765 15.8511 7.57206 17.8891 7.14999 20.03L3.37 20.95V26L7.26001 26.9399C7.72669 28.9836 8.57486 30.9208 9.76001 32.6499L7.59 36.2L11.19 39.79L14.95 37.5C16.6039 38.4899 18.4177 39.1837 20.31 39.55L21.39 44.02H26.47L27.61 39.3201C29.326 38.8808 30.9602 38.1682 32.45 37.21L36.67 39.79L40.27 36.2L37.64 31.8999C38.5519 30.4421 39.227 28.8491 39.64 27.1799L44.56 26ZM24 30.4399C22.6155 30.4399 21.2622 30.0294 20.111 29.2603C18.9599 28.4911 18.0627 27.398 17.5328 26.1189C17.003 24.8398 16.8644 23.4323 17.1345 22.0745C17.4046 20.7166 18.0713 19.4692 19.0503 18.4902C20.0292 17.5113 21.2765 16.8446 22.6344 16.5745C23.9922 16.3044 25.3997 16.4431 26.6788 16.9729C27.9579 17.5027 29.0511 18.3999 29.8203 19.551C30.5895 20.7022 31 22.0555 31 23.4399C31 25.2965 30.2625 27.0769 28.9497 28.3896C27.637 29.7024 25.8565 30.4399 24 30.4399V30.4399Z" stroke="#3A4651" stroke-width="5" stroke-linecap="round" stroke-linejoin="round"/>
</svg>
