<svg width="32" height="32" viewBox="0 0 32 32" fill="none" xmlns="http://www.w3.org/2000/svg">
<path fill-rule="evenodd" clip-rule="evenodd" d="M17.1598 4C18.2 4 19.0665 4.79732 19.1529 5.83391L19.3007 7.60313C20.1479 7.93087 20.9332 8.38315 21.6339 8.93752L23.2278 8.18653C24.1687 7.74304 25.2924 8.09482 25.8125 8.99564L26.9723 11.0044C27.4923 11.9052 27.2351 13.0543 26.3806 13.6474L24.9525 14.6392C25.0198 15.083 25.0547 15.5374 25.0547 16C25.0547 16.4626 25.0198 16.917 24.9525 17.3608L26.3806 18.3526C27.2351 18.9457 27.4923 20.0948 26.9723 20.9956L25.8125 23.0044C25.2924 23.9052 24.1687 24.257 23.2278 23.8135L21.6339 23.0625C20.9334 23.6166 20.1485 24.0688 19.3016 24.3965L19.1529 26.1661C19.0665 27.2027 18.2 28 17.1598 28H14.8404C13.8002 28 12.9336 27.2027 12.8473 26.1661L12.6957 24.3523C11.8756 24.0221 11.1153 23.5747 10.4355 23.0307L8.77241 23.8135C7.83151 24.257 6.70774 23.9052 6.18765 23.0044L5.02791 20.9956C4.50783 20.0948 4.76506 18.9457 5.61958 18.3526L7.14671 17.2918C7.08608 16.8699 7.0547 16.4386 7.0547 16C7.0547 15.561 7.08613 15.1294 7.14686 14.7073L5.61958 13.6474C4.76506 13.0543 4.50783 11.9052 5.02791 11.0044L6.18765 8.99564C6.70774 8.09482 7.83151 7.74304 8.77241 8.18653L10.4355 8.96928C11.1153 8.42532 11.8756 7.97788 12.6957 7.64774L12.8473 5.83391C12.9336 4.79732 13.8002 4 14.8404 4H17.1598Z" stroke="#EDB24E" stroke-width="2"/>
<circle cx="16.0547" cy="16" r="4" stroke="#EDB24E" stroke-width="2"/>
</svg>
