<svg width="48" height="35" viewBox="0 0 48 35" fill="none" xmlns="http://www.w3.org/2000/svg">
<path d="M44.47 27.38C43.7566 27.38 43.0723 27.0966 42.5679 26.5921C42.0634 26.0876 41.78 25.4034 41.78 24.69C41.78 23.9766 42.0634 23.2924 42.5679 22.7879C43.0723 22.2834 43.7566 22 44.47 22H44.55V15.21H44.47C43.7836 15.1682 43.1391 14.866 42.6678 14.3652C42.1966 13.8644 41.9342 13.2027 41.9342 12.515C41.9342 11.8274 42.1966 11.1656 42.6678 10.6648C43.1391 10.164 43.7836 9.86184 44.47 9.82001H44.55V3.34998H3V9.82001C3.68378 9.86176 4.32587 10.1628 4.79529 10.6617C5.2647 11.1607 5.52606 11.82 5.52606 12.505C5.52606 13.1901 5.2647 13.8493 4.79529 14.3483C4.32587 14.8472 3.68378 15.1483 3 15.19V22C3.68378 22.0417 4.32587 22.3428 4.79529 22.8417C5.2647 23.3407 5.52606 23.9999 5.52606 24.685C5.52606 25.3701 5.2647 26.0293 4.79529 26.5283C4.32587 27.0272 3.68378 27.3282 3 27.37V32H44.55V27.38H44.47Z" stroke="#3A4651" stroke-width="5" stroke-linejoin="round"/>
<path d="M14.85 16.35C14.0687 15.4065 13.6411 14.22 13.6411 12.995C13.6411 11.77 14.0687 10.5835 14.85 9.64001C15.7245 8.82964 16.8728 8.37939 18.065 8.37939C19.2572 8.37939 20.4055 8.82964 21.28 9.64001C22.0613 10.5835 22.4889 11.77 22.4889 12.995C22.4889 14.22 22.0613 15.4065 21.28 16.35C20.4088 17.1669 19.2593 17.6216 18.065 17.6216C16.8707 17.6216 15.7212 17.1669 14.85 16.35ZM17.93 26.44C17.38 26.44 17.17 26.06 17.46 25.59L22.03 18.22C22.3929 17.6541 22.7267 17.07 23.03 16.47L26.19 9.73999C26.331 9.47898 26.5364 9.25839 26.7867 9.09912C27.037 8.93985 27.3238 8.84721 27.62 8.83002H30C30.55 8.83002 30.75 9.20998 30.46 9.66998L25.6 17.25C25.2496 17.8161 24.9357 18.404 24.66 19.01L21.78 25.53C21.6446 25.7914 21.4432 26.0128 21.1959 26.1724C20.9486 26.332 20.6639 26.4242 20.37 26.44H17.93ZM18.86 14.29C19.0724 13.8908 19.1727 13.4416 19.15 12.99C19.1774 12.5328 19.0806 12.0767 18.87 11.67C18.7897 11.5286 18.6734 11.411 18.5328 11.3292C18.3923 11.2474 18.2326 11.2043 18.07 11.2043C17.9074 11.2043 17.7477 11.2474 17.6072 11.3292C17.4666 11.411 17.3503 11.5286 17.27 11.67C17.0656 12.0822 16.9726 12.5407 17 13C16.9788 13.4515 17.079 13.9003 17.29 14.3C17.3651 14.4447 17.4785 14.566 17.6178 14.6507C17.7571 14.7354 17.917 14.7802 18.08 14.7802C18.243 14.7802 18.4029 14.7354 18.5422 14.6507C18.6815 14.566 18.7949 14.4447 18.87 14.3L18.86 14.29ZM26.38 25.67C25.5979 24.7249 25.17 23.5367 25.17 22.31C25.17 21.0833 25.5979 19.895 26.38 18.95C27.2528 18.1403 28.3994 17.6904 29.59 17.6904C30.7806 17.6904 31.9271 18.1403 32.8 18.95C33.5767 19.8975 34.0012 21.0848 34.0012 22.31C34.0012 23.5352 33.5767 24.7225 32.8 25.67C31.9271 26.4797 30.7806 26.9296 29.59 26.9296C28.3994 26.9296 27.2528 26.4797 26.38 25.67ZM30.38 23.6C30.5949 23.2017 30.6953 22.7518 30.67 22.3C30.6984 21.8427 30.6016 21.3863 30.39 20.98C30.3149 20.8368 30.2009 20.7177 30.0612 20.6364C29.9215 20.555 29.7616 20.5147 29.6 20.52C29.4363 20.5172 29.2751 20.5596 29.1339 20.6425C28.9928 20.7254 28.8772 20.8457 28.8 20.99C28.5853 21.3919 28.485 21.845 28.51 22.3C28.4888 22.7514 28.5889 23.2003 28.8 23.6C28.8774 23.7419 28.9917 23.8603 29.1307 23.9428C29.2697 24.0253 29.4283 24.0688 29.59 24.0688C29.7516 24.0688 29.9103 24.0253 30.0493 23.9428C30.1883 23.8603 30.3026 23.7419 30.38 23.6Z" fill="#3A4651"/>
</svg>
