<svg width="56" height="43" viewBox="0 0 56 43" fill="none" xmlns="http://www.w3.org/2000/svg">
<g filter="url(#filter0_d_105_6)">
<path d="M48.47 27.38C47.7566 27.38 47.0723 27.0966 46.5679 26.5921C46.0634 26.0876 45.78 25.4034 45.78 24.69C45.78 23.9766 46.0634 23.2924 46.5679 22.7879C47.0723 22.2834 47.7566 22 48.47 22H48.55V15.21H48.47C47.7836 15.1682 47.1391 14.866 46.6678 14.3652C46.1966 13.8644 45.9342 13.2027 45.9342 12.515C45.9342 11.8274 46.1966 11.1656 46.6678 10.6648C47.1391 10.164 47.7836 9.86184 48.47 9.82001H48.55V3.34998H7V9.82001C7.68378 9.86176 8.32587 10.1628 8.79529 10.6617C9.2647 11.1607 9.52606 11.82 9.52606 12.505C9.52606 13.1901 9.2647 13.8493 8.79529 14.3483C8.32587 14.8472 7.68378 15.1483 7 15.19V22C7.68378 22.0417 8.32587 22.3428 8.79529 22.8417C9.2647 23.3407 9.52606 23.9999 9.52606 24.685C9.52606 25.3701 9.2647 26.0293 8.79529 26.5283C8.32587 27.0272 7.68378 27.3282 7 27.37V32H48.55V27.38H48.47Z" stroke="#EDB24E" stroke-width="5" stroke-linejoin="round"/>
<path d="M18.85 16.35C18.0687 15.4065 17.6411 14.22 17.6411 12.995C17.6411 11.77 18.0687 10.5835 18.85 9.64001C19.7245 8.82964 20.8728 8.37939 22.065 8.37939C23.2572 8.37939 24.4055 8.82964 25.28 9.64001C26.0613 10.5835 26.4889 11.77 26.4889 12.995C26.4889 14.22 26.0613 15.4065 25.28 16.35C24.4088 17.1669 23.2593 17.6216 22.065 17.6216C20.8707 17.6216 19.7212 17.1669 18.85 16.35ZM21.93 26.44C21.38 26.44 21.17 26.06 21.46 25.59L26.03 18.22C26.3929 17.6541 26.7267 17.07 27.03 16.47L30.19 9.73999C30.331 9.47898 30.5364 9.25839 30.7867 9.09912C31.037 8.93985 31.3238 8.84721 31.62 8.83002H34C34.55 8.83002 34.75 9.20998 34.46 9.66998L29.6 17.25C29.2496 17.8161 28.9357 18.404 28.66 19.01L25.78 25.53C25.6446 25.7914 25.4432 26.0128 25.1959 26.1724C24.9486 26.332 24.6639 26.4242 24.37 26.44H21.93ZM22.86 14.29C23.0724 13.8908 23.1727 13.4416 23.15 12.99C23.1774 12.5328 23.0806 12.0767 22.87 11.67C22.7897 11.5286 22.6734 11.411 22.5328 11.3292C22.3923 11.2474 22.2326 11.2043 22.07 11.2043C21.9074 11.2043 21.7477 11.2474 21.6072 11.3292C21.4666 11.411 21.3503 11.5286 21.27 11.67C21.0656 12.0822 20.9726 12.5407 21 13C20.9788 13.4515 21.079 13.9003 21.29 14.3C21.3651 14.4447 21.4785 14.566 21.6178 14.6507C21.7571 14.7354 21.917 14.7802 22.08 14.7802C22.243 14.7802 22.4029 14.7354 22.5422 14.6507C22.6815 14.566 22.7949 14.4447 22.87 14.3L22.86 14.29ZM30.38 25.67C29.5979 24.7249 29.17 23.5367 29.17 22.31C29.17 21.0833 29.5979 19.895 30.38 18.95C31.2528 18.1403 32.3994 17.6904 33.59 17.6904C34.7806 17.6904 35.9271 18.1403 36.8 18.95C37.5767 19.8975 38.0012 21.0848 38.0012 22.31C38.0012 23.5352 37.5767 24.7225 36.8 25.67C35.9271 26.4797 34.7806 26.9296 33.59 26.9296C32.3994 26.9296 31.2528 26.4797 30.38 25.67ZM34.38 23.6C34.5949 23.2017 34.6953 22.7518 34.67 22.3C34.6984 21.8427 34.6016 21.3863 34.39 20.98C34.3149 20.8368 34.2009 20.7177 34.0612 20.6364C33.9215 20.555 33.7616 20.5147 33.6 20.52C33.4363 20.5172 33.2751 20.5596 33.1339 20.6425C32.9928 20.7254 32.8772 20.8457 32.8 20.99C32.5853 21.3919 32.485 21.845 32.51 22.3C32.4888 22.7514 32.5889 23.2003 32.8 23.6C32.8774 23.7419 32.9917 23.8603 33.1307 23.9428C33.2697 24.0253 33.4283 24.0688 33.59 24.0688C33.7516 24.0688 33.9103 24.0253 34.0493 23.9428C34.1883 23.8603 34.3026 23.7419 34.38 23.6Z" fill="#EDB24E"/>
</g>
<defs>
<filter id="filter0_d_105_6" x="0.5" y="0.849976" width="54.55" height="41.65" filterUnits="userSpaceOnUse" color-interpolation-filters="sRGB">
<feFlood flood-opacity="0" result="BackgroundImageFix"/>
<feColorMatrix in="SourceAlpha" type="matrix" values="0 0 0 0 0 0 0 0 0 0 0 0 0 0 0 0 0 0 127 0" result="hardAlpha"/>
<feOffset dy="4"/>
<feGaussianBlur stdDeviation="2"/>
<feComposite in2="hardAlpha" operator="out"/>
<feColorMatrix type="matrix" values="0 0 0 0 0 0 0 0 0 0 0 0 0 0 0 0 0 0 0.25 0"/>
<feBlend mode="normal" in2="BackgroundImageFix" result="effect1_dropShadow_105_6"/>
<feBlend mode="normal" in="SourceGraphic" in2="effect1_dropShadow_105_6" result="shape"/>
</filter>
</defs>
</svg>
