<svg width="286" height="63" viewBox="0 0 286 63" fill="none" xmlns="http://www.w3.org/2000/svg">
<path d="M32.9147 50.3333C32.0507 50.3344 31.2985 50.0474 30.6582 49.4722C30.0178 48.8971 29.6975 48.2095 29.697 47.4095L29.6815 19.6655C29.681 18.8655 29.9846 18.1771 30.5923 17.6003C31.232 17.0235 31.9998 16.7345 32.8958 16.7333L45.8078 16.7162C48.8798 16.7122 51.3283 17.573 53.1533 19.2986C55.0102 20.9921 55.9395 23.2789 55.9411 26.1589C55.9419 27.5349 55.5746 28.8474 54.8393 30.0963C54.104 31.3133 53.1285 32.2586 51.9129 32.9322L51.913 33.0762C53.5773 33.65 54.8898 34.5923 55.8506 35.903C56.8433 37.2137 57.3401 38.7171 57.3411 40.4131C57.3422 42.3331 56.8951 44.0456 56 45.5508C55.1048 47.056 53.8575 48.2257 52.2579 49.0598C50.6584 49.8939 48.8346 50.3123 46.7866 50.315L32.9147 50.3333ZM45.7197 30.8284C46.7757 30.827 47.6715 30.3938 48.407 29.5288C49.1745 28.6638 49.5579 27.6233 49.5573 26.4073C49.5565 25.0953 49.2039 24.0558 48.4995 23.2887C47.8271 22.5216 46.8989 22.1388 45.7149 22.1404L35.9229 22.1533L35.9277 30.8413L45.7197 30.8284ZM46.6876 44.8911C47.9996 44.8894 49.0394 44.504 49.807 43.735C50.5745 42.934 50.9579 41.8455 50.9571 40.4695C50.9564 39.1255 50.5718 38.086 49.8034 37.351C49.067 36.584 48.0267 36.2013 46.6827 36.2031L35.9307 36.2173L35.9356 44.9053L46.6876 44.8911ZM61.9792 21.1109C61.9783 19.5429 62.5376 18.3422 63.6571 17.5087C64.7767 16.6752 66.3604 16.2571 68.4084 16.2544L68.4171 31.6624L84.4884 16.2332C85.2888 16.8082 85.9291 17.4633 86.4095 18.1987C86.9219 18.902 87.1783 19.5257 87.1786 20.0697C87.1788 20.5497 87.0031 21.0299 86.6514 21.5104C86.3316 21.9588 85.8359 22.5035 85.1643 23.1444L75.5694 32.229L88.7786 48.6756C87.7873 50.0209 86.4917 50.6946 84.8917 50.6967C83.3557 50.6988 82.1234 50.1244 81.1948 48.9736L71.1556 36.2668L68.4212 38.9584L68.4252 46.1584C68.4261 47.7264 67.9147 48.8791 66.8911 49.6165C65.8675 50.3538 64.2357 50.724 61.9957 50.7269L61.9792 21.1109Z" fill="#1286CE"/>
<path d="M93.3846 19.5815C93.3841 18.7495 93.6877 18.0611 94.2954 17.5163C94.9031 16.9395 95.6709 16.6505 96.5989 16.6493L109.943 16.6317C112.247 16.6286 114.279 17.09 116.04 18.0156C117.832 18.9093 119.209 20.2035 120.17 21.8982C121.163 23.5609 121.66 25.4962 121.661 27.7042C121.662 29.9442 121.183 31.9129 120.224 33.6101C119.265 35.2754 117.906 36.5732 116.147 37.5035C114.387 38.4018 112.323 38.8525 109.955 38.8557L99.8274 38.869L99.8313 45.925C99.8322 47.461 99.2728 48.6458 98.1533 49.4792C97.0657 50.2807 95.482 50.6828 93.402 50.6855L93.3846 19.5815ZM109.952 33.2877C111.648 33.2854 112.96 32.7877 113.887 31.7945C114.815 30.8013 115.278 29.4246 115.277 27.6646C115.276 25.9366 114.795 24.5933 113.835 23.6345C112.906 22.6758 111.61 22.1975 109.946 22.1997L99.818 22.213L99.8242 33.301L109.952 33.2877ZM133.632 50.6325C131.648 50.6351 129.839 50.2535 128.207 49.4876C126.574 48.6898 125.278 47.6195 124.317 46.2767C123.356 44.902 122.875 43.3666 122.875 41.6706L122.871 35.2866C122.87 33.4946 123.365 31.878 124.356 30.4367C125.347 28.9954 126.659 27.8576 128.29 27.0235C129.954 26.1893 131.746 25.7709 133.666 25.7684C135.554 25.7659 137.282 26.1636 138.85 26.9616C140.451 27.7274 141.715 28.8138 142.644 30.2206C143.573 31.5953 144.038 33.1787 144.039 34.9707L144.04 37.6587C144.041 38.3627 143.769 38.9551 143.225 39.4358C142.714 39.9165 142.058 40.1573 141.258 40.1584L128.682 40.175L128.682 41.231C128.683 42.607 129.1 43.7264 129.932 44.5893C130.765 45.4522 132.013 45.8826 133.677 45.8804C135.277 45.8783 136.461 45.5247 137.228 44.8197C138.028 44.1147 138.427 43.2021 138.427 42.0821C139.003 42.0174 139.403 41.9848 139.627 41.9845C140.811 41.983 141.739 42.2538 142.411 42.7969C143.083 43.308 143.42 44.0435 143.42 45.0035C143.421 45.9315 142.989 46.8281 142.126 47.6932C141.262 48.5584 140.079 49.2639 138.575 49.8099C137.071 50.3559 135.424 50.6301 133.632 50.6325ZM138.615 35.8899L138.615 34.9779C138.614 33.6339 138.149 32.5465 137.221 31.7157C136.293 30.8849 135.092 30.4705 133.62 30.4725C132.148 30.4744 130.949 30.892 130.021 31.7252C129.125 32.5264 128.678 33.615 128.679 34.991L128.679 35.903L138.615 35.8899ZM158.498 50.5997C155.906 50.6031 153.985 49.8536 152.737 48.3513C151.488 46.8489 150.863 44.9137 150.861 42.5457L150.855 30.6417L145.911 30.6482C145.91 29.1442 146.197 28.0239 146.773 27.2871C147.348 26.5503 148.116 26.1813 149.076 26.1801L150.948 26.1776L150.946 22.1936C150.945 20.8816 151.425 19.953 152.384 19.4077C153.344 18.8304 154.8 18.5405 156.752 18.5379L156.756 26.1699L163.14 26.1615C163.141 27.7615 162.838 28.9139 162.23 29.6187C161.622 30.2915 160.647 30.6288 159.303 30.6306L156.855 30.6338L156.861 42.2978C156.862 43.4178 157.07 44.2175 157.486 44.697C157.935 45.1764 158.687 45.4154 159.743 45.414C160.863 45.4125 161.983 45.1071 163.102 44.4976C163.423 44.7852 163.679 45.1528 163.871 45.6006C164.063 46.0163 164.159 46.4482 164.16 46.8962C164.16 47.8562 163.665 48.7208 162.673 49.4902C161.682 50.2275 160.29 50.5973 158.498 50.5997ZM177.738 50.5743C175.658 50.577 173.817 50.2115 172.217 49.4776C170.616 48.7117 169.368 47.6573 168.471 46.3145C167.574 44.9717 167.126 43.4523 167.125 41.7563L167.121 35.0363C167.12 33.2123 167.567 31.5957 168.462 30.1865C169.357 28.7773 170.605 27.6877 172.204 26.9176C173.804 26.1155 175.628 25.7131 177.676 25.7104C179.596 25.7078 181.292 25.9776 182.764 26.5196C184.268 27.0617 185.437 27.8281 186.269 28.819C187.102 29.7779 187.519 30.8974 187.519 32.1774C187.52 33.1694 187.136 33.9699 186.369 34.5789C185.601 35.1879 184.593 35.4932 183.345 35.4949C182.993 35.4953 182.737 35.4797 182.577 35.4479C182.576 34.0719 182.128 32.9685 181.231 32.1377C180.367 31.3068 179.231 30.8923 177.823 30.8942C176.415 30.896 175.263 31.2975 174.367 32.0987C173.504 32.8999 173.072 33.9564 173.073 35.2684L173.076 41.3164C173.077 42.5324 173.526 43.5238 174.422 44.2907C175.318 45.0255 176.471 45.392 177.879 45.3901C179.287 45.3882 180.438 44.9707 181.334 44.1375C182.229 43.2724 182.677 42.1838 182.676 40.8718C182.868 40.8395 183.14 40.8232 183.492 40.8227C184.74 40.821 185.748 41.1077 186.517 41.6827C187.285 42.2577 187.669 43.0412 187.67 44.0332C187.671 45.3132 187.239 46.4498 186.376 47.4429C185.544 48.404 184.377 49.1735 182.873 49.7515C181.369 50.2975 179.658 50.5718 177.738 50.5743ZM199.526 50.5456C197.894 50.5477 196.39 50.2297 195.014 49.5915C193.669 48.9533 192.581 48.0427 191.748 46.8598C190.947 45.6449 190.547 44.2054 190.546 42.5414C190.545 40.8774 190.976 39.4368 191.839 38.2197C192.703 36.9705 193.87 36.025 195.342 35.3831C196.845 34.7091 198.493 34.3709 200.285 34.3685C201.757 34.3666 203.069 34.6049 204.221 35.0834C205.406 35.5298 206.494 36.2164 207.487 37.143L207.726 36.9027C207.438 36.6151 206.942 36.1838 206.238 35.6087L206.237 34.6487C206.236 33.3367 205.772 32.2973 204.843 31.5305C203.915 30.7638 202.619 30.3815 200.955 30.3837C197.979 30.3876 195.787 31.4785 194.381 33.6563C193.677 33.4333 193.084 33.082 192.604 32.6027C192.124 32.0913 191.883 31.5476 191.883 30.9716C191.883 30.0116 192.314 29.1311 193.178 28.3299C194.041 27.5288 195.209 26.8872 196.681 26.4053C198.152 25.9234 199.752 25.6812 201.48 25.679C204.872 25.6745 207.497 26.471 209.354 28.0686C211.21 29.6341 212.14 31.7769 212.141 34.4969L212.148 46.4969C212.149 47.9049 211.701 48.9295 210.806 49.5707C209.91 50.2119 208.502 50.5337 206.582 50.5362L206.581 48.5682C207.125 48.0235 207.492 47.623 207.684 47.3668L207.492 47.127C206.437 48.2484 205.301 49.0979 204.086 49.6755C202.902 50.2531 201.382 50.5431 199.526 50.5456ZM201.06 46.1755C202.724 46.1733 204.02 45.8516 204.947 45.2104C205.875 44.5692 206.338 43.6566 206.338 42.4726C206.337 41.3206 205.856 40.4092 204.896 39.7385C203.968 39.0677 202.704 38.7334 201.104 38.7355C199.632 38.7374 198.464 39.0749 197.6 39.7481C196.768 40.3892 196.353 41.3017 196.354 42.4857C196.354 43.7017 196.771 44.6292 197.603 45.2681C198.436 45.875 199.588 46.1775 201.06 46.1755ZM229.852 30.8255C227.964 30.828 226.428 31.3421 225.245 32.3676C224.061 33.3612 223.47 34.61 223.471 36.114L223.477 46.866C223.478 48.146 222.998 49.0746 222.038 49.6519C221.079 50.2291 219.575 50.5191 217.527 50.5218L217.516 30.2658C217.515 28.7938 217.978 27.6572 218.906 26.856C219.865 26.0547 221.305 25.6528 223.225 25.6503L223.227 28.4823C222.747 29.0269 222.363 29.5554 222.075 30.0678L222.364 30.2594C224.378 27.1848 226.905 25.6454 229.945 25.6414C231.321 25.6396 232.361 26.0062 233.066 26.7413C233.77 27.4444 234.122 28.3399 234.123 29.4279C234.124 30.2599 233.9 30.9642 233.452 31.5408C232.588 31.0619 231.388 30.8235 229.852 30.8255ZM246.553 50.4835C244.569 50.4862 242.761 50.1045 241.129 49.3387C239.496 48.5408 238.2 47.4706 237.239 46.1278C236.278 44.7531 235.797 43.2177 235.796 41.5217L235.793 35.1377C235.792 33.3457 236.287 31.7291 237.278 30.2878C238.269 28.8464 239.581 27.7087 241.212 26.8746C242.876 26.0404 244.667 25.622 246.587 25.6195C248.475 25.617 250.204 26.0147 251.772 26.8126C253.373 27.5785 254.637 28.6649 255.566 30.0716C256.495 31.4464 256.96 33.0298 256.961 34.8218L256.962 37.5098C256.962 38.2138 256.691 38.8062 256.147 39.2869C255.635 39.7676 254.979 40.0084 254.179 40.0095L241.603 40.0261L241.604 41.0821C241.605 42.4581 242.021 43.5775 242.854 44.4404C243.686 45.3033 244.935 45.7337 246.599 45.7315C248.199 45.7294 249.382 45.3758 250.15 44.6708C250.95 43.9657 251.349 43.0532 251.349 41.9332C251.925 41.8684 252.324 41.8359 252.548 41.8356C253.732 41.8341 254.661 42.1048 255.333 42.648C256.005 43.1591 256.342 43.8946 256.342 44.8546C256.343 45.7826 255.911 46.6792 255.048 47.5443C254.184 48.4095 253.001 49.115 251.497 49.661C249.993 50.207 248.345 50.4812 246.553 50.4835ZM251.537 35.741L251.537 34.829C251.536 33.485 251.071 32.3976 250.143 31.5668C249.214 30.736 248.014 30.3216 246.542 30.3235C245.07 30.3255 243.87 30.7431 242.943 31.5763C242.047 32.3775 241.6 33.4661 241.601 34.8421L241.601 35.7541L251.537 35.741Z" fill="#EDB24E"/>
</svg>
