<svg width="33" height="40" viewBox="0 0 33 40" fill="none" xmlns="http://www.w3.org/2000/svg">
<path d="M20.743 34.5745C20.3227 35.3034 19.7179 35.909 18.9893 36.33C18.2607 36.7509 17.4341 36.9726 16.5927 36.9726C15.7512 36.9726 14.9246 36.7509 14.1961 36.33C13.4675 35.909 12.8626 35.3034 12.4424 34.5745" stroke="#3A4651" stroke-width="5" stroke-linecap="round" stroke-linejoin="round"/>
<path d="M30 29.1284H3C4.42606 26.2326 5.07723 23.0165 4.89 19.794L4.73571 17.2328C4.53403 14.5835 5.06794 11.93 6.27857 9.56486C8.41543 5.59201 12.2031 3 16.4614 3C20.7197 3 24.5074 5.59201 26.6443 9.56486C27.8549 11.93 28.3888 14.5835 28.1871 17.2328L28.0406 19.7168C27.8474 22.9637 28.4957 26.2056 29.9229 29.1284H30Z" stroke="#3A4651" stroke-width="5" stroke-linecap="round" stroke-linejoin="round"/>
</svg>
