<svg width="29" height="29" viewBox="0 0 29 29" fill="none" xmlns="http://www.w3.org/2000/svg">
<path d="M14.5005 14.5005C15.7552 14.5005 16.9817 14.1284 18.0249 13.4314C19.0681 12.7343 19.8812 11.7436 20.3614 10.5844C20.8415 9.42522 20.9671 8.1497 20.7224 6.91914C20.4776 5.68857 19.8734 4.55822 18.9862 3.67103C18.099 2.78384 16.9687 2.17966 15.7381 1.93488C14.5075 1.69011 13.232 1.81574 12.0728 2.29588C10.9137 2.77602 9.92291 3.58912 9.22585 4.63234C8.52879 5.67557 8.15674 6.90207 8.15674 8.15674C8.15674 9.83921 8.8251 11.4528 10.0148 12.6424C11.2045 13.8321 12.818 14.5005 14.5005 14.5005ZM14.5005 16.313C10.5685 16.313 2.71924 18.7417 2.71924 23.563V27.188H26.2817V23.563C26.2817 18.7417 18.4325 16.313 14.5005 16.313Z" fill="black"/>
</svg>
